<?xml version="1.0" encoding="UTF-8" standalone="no"?>
<svg
   viewBox="0 0 314.07803 316.75774"
   version="1.2"
   id="svg6"
   sodipodi:docname="icon2.svg"
   width="314.07803"
   height="316.75775"
   inkscape:version="1.4 (e7c3feb1, 2024-10-09)"
   inkscape:export-filename="icon.png"
   inkscape:export-xdpi="96"
   inkscape:export-ydpi="96"
   xmlns:inkscape="http://www.inkscape.org/namespaces/inkscape"
   xmlns:sodipodi="http://sodipodi.sourceforge.net/DTD/sodipodi-0.dtd"
   xmlns="http://www.w3.org/2000/svg"
   xmlns:svg="http://www.w3.org/2000/svg"
   xmlns:rdf="http://www.w3.org/1999/02/22-rdf-syntax-ns#"
   xmlns:cc="http://creativecommons.org/ns#"
   xmlns:dc="http://purl.org/dc/elements/1.1/">
  <sodipodi:namedview
     id="namedview6"
     pagecolor="#ffffff"
     bordercolor="#000000"
     borderopacity="0.25"
     inkscape:showpageshadow="2"
     inkscape:pageopacity="0.0"
     inkscape:pagecheckerboard="0"
     inkscape:deskcolor="#d1d1d1"
     showgrid="true"
     inkscape:zoom="1.3915256"
     inkscape:cx="108.15467"
     inkscape:cy="167.80144"
     inkscape:window-width="1360"
     inkscape:window-height="768"
     inkscape:window-x="0"
     inkscape:window-y="63"
     inkscape:window-maximized="0"
     inkscape:current-layer="svg6"
     inkscape:export-bgcolor="#ededefde">
    <inkscape:grid
       id="grid6"
       units="px"
       originx="4.4672054"
       originy="9.052829"
       spacingx="3.7795276"
       spacingy="3.7795276"
       empcolor="#0099e5"
       empopacity="0.30196078"
       color="#0099e5"
       opacity="0.14901961"
       empspacing="5"
       enabled="true"
       visible="true" />
  </sodipodi:namedview>
  <title
     id="title1">état nœudien</title>
  <desc
     id="desc1">sommets: 3, arêtes: 6, faces: 5, Delta T: 2, Portance P: 02|02|11, nœud: non-réductible</desc>
  <defs
     id="defs1">
    <filter
       style="color-interpolation-filters:sRGB;"
       inkscape:label="Combined Lighting"
       id="filter41"
       x="-0.25144687"
       y="-0.23609347"
       width="1.5028845"
       height="1.4721881"
       inkscape:menu="Bevels"
       inkscape:menu-tooltip="Basic specular bevel to use for building textures">
      <feGaussianBlur
         in="SourceGraphic"
         stdDeviation="6"
         result="blur"
         id="feGaussianBlur40" />
      <feDiffuseLighting
         diffuseConstant="1"
         surfaceScale="10"
         lighting-color="rgb(255,255,255)"
         result="diffuse"
         id="feDiffuseLighting40">
        <feDistantLight
           elevation="25"
           azimuth="235"
           id="feDistantLight40" />
      </feDiffuseLighting>
      <feComposite
         in="diffuse"
         in2="diffuse"
         operator="arithmetic"
         k1="1"
         result="composite1"
         id="feComposite40" />
      <feComposite
         in="composite1"
         in2="SourceGraphic"
         k1="1"
         operator="arithmetic"
         k3="1"
         result="fbSourceGraphic"
         id="feComposite41" />
      <feColorMatrix
         result="fbSourceGraphicAlpha"
         in="fbSourceGraphic"
         values="0 0 0 -1 0 0 0 0 -1 0 0 0 0 -1 0 0 0 0 1 0"
         id="feColorMatrix45" />
      <feGaussianBlur
         id="feGaussianBlur45"
         stdDeviation="6"
         in="fbSourceGraphic"
         result="result0" />
      <feDiffuseLighting
         id="feDiffuseLighting45"
         lighting-color="rgb(255,255,255)"
         diffuseConstant="1"
         surfaceScale="4"
         result="result5">
        <feDistantLight
           id="feDistantLight45"
           elevation="45"
           azimuth="235" />
      </feDiffuseLighting>
      <feComposite
         id="feComposite46"
         k1="1.4"
         in2="fbSourceGraphic"
         in="result5"
         result="fbSourceGraphic"
         operator="arithmetic"
         k2="0"
         k3="0"
         k4="0" />
      <feGaussianBlur
         id="feGaussianBlur46"
         result="result0"
         in="fbSourceGraphic"
         stdDeviation="6" />
      <feSpecularLighting
         id="feSpecularLighting46"
         specularExponent="25"
         specularConstant="1"
         surfaceScale="4"
         lighting-color="rgb(255,255,255)"
         result="result1"
         in="result0">
        <feDistantLight
           id="feDistantLight46"
           azimuth="235"
           elevation="45" />
      </feSpecularLighting>
      <feComposite
         id="feComposite47"
         k3="1"
         k2="1"
         operator="arithmetic"
         in="fbSourceGraphic"
         in2="result1"
         result="result4"
         k1="0"
         k4="0" />
      <feGaussianBlur
         id="feGaussianBlur47"
         stdDeviation="1"
         in="result4"
         result="result6" />
      <feComposite
         id="feComposite48"
         operator="in"
         result="result2"
         in2="fbSourceGraphic"
         in="result6" />
    </filter>
    <filter
       style="color-interpolation-filters:sRGB;"
       inkscape:label="Combined Lighting"
       id="filter43"
       x="-0.26372417"
       y="-0.24996158"
       width="1.5275031"
       height="1.4999248"
       inkscape:menu="Bevels"
       inkscape:menu-tooltip="Basic specular bevel to use for building textures">
      <feGaussianBlur
         in="SourceGraphic"
         stdDeviation="6"
         result="blur"
         id="feGaussianBlur41" />
      <feDiffuseLighting
         diffuseConstant="1"
         surfaceScale="10"
         lighting-color="rgb(255,255,255)"
         result="diffuse"
         id="feDiffuseLighting41">
        <feDistantLight
           elevation="25"
           azimuth="235"
           id="feDistantLight41" />
      </feDiffuseLighting>
      <feComposite
         in="diffuse"
         in2="diffuse"
         operator="arithmetic"
         k1="1"
         result="composite1"
         id="feComposite42" />
      <feComposite
         in="composite1"
         in2="SourceGraphic"
         k1="1"
         operator="arithmetic"
         k3="1"
         result="fbSourceGraphic"
         id="feComposite43" />
      <feColorMatrix
         result="fbSourceGraphicAlpha"
         in="fbSourceGraphic"
         values="0 0 0 -1 0 0 0 0 -1 0 0 0 0 -1 0 0 0 0 1 0"
         id="feColorMatrix48" />
      <feGaussianBlur
         id="feGaussianBlur48"
         stdDeviation="6"
         in="fbSourceGraphic"
         result="result0" />
      <feDiffuseLighting
         id="feDiffuseLighting48"
         lighting-color="rgb(255,255,255)"
         diffuseConstant="1"
         surfaceScale="4"
         result="result5">
        <feDistantLight
           id="feDistantLight48"
           elevation="45"
           azimuth="235" />
      </feDiffuseLighting>
      <feComposite
         id="feComposite49"
         k1="1.4"
         in2="fbSourceGraphic"
         in="result5"
         result="fbSourceGraphic"
         operator="arithmetic"
         k2="0"
         k3="0"
         k4="0" />
      <feGaussianBlur
         id="feGaussianBlur49"
         result="result0"
         in="fbSourceGraphic"
         stdDeviation="6" />
      <feSpecularLighting
         id="feSpecularLighting49"
         specularExponent="25"
         specularConstant="1"
         surfaceScale="4"
         lighting-color="rgb(255,255,255)"
         result="result1"
         in="result0">
        <feDistantLight
           id="feDistantLight49"
           azimuth="235"
           elevation="45" />
      </feSpecularLighting>
      <feComposite
         id="feComposite50"
         k3="1"
         k2="1"
         operator="arithmetic"
         in="fbSourceGraphic"
         in2="result1"
         result="result4"
         k1="0"
         k4="0" />
      <feGaussianBlur
         id="feGaussianBlur50"
         stdDeviation="1"
         in="result4"
         result="result6" />
      <feComposite
         id="feComposite51"
         operator="in"
         result="result2"
         in2="fbSourceGraphic"
         in="result6" />
    </filter>
    <filter
       style="color-interpolation-filters:sRGB;"
       inkscape:label="Combined Lighting"
       id="filter45"
       x="-0.28550268"
       y="-0.27106574"
       width="1.5710103"
       height="1.5421313"
       inkscape:menu="Bevels"
       inkscape:menu-tooltip="Basic specular bevel to use for building textures">
      <feGaussianBlur
         in="SourceGraphic"
         stdDeviation="6"
         result="blur"
         id="feGaussianBlur43" />
      <feDiffuseLighting
         diffuseConstant="1"
         surfaceScale="10"
         lighting-color="rgb(255,255,255)"
         result="diffuse"
         id="feDiffuseLighting43">
        <feDistantLight
           elevation="25"
           azimuth="235"
           id="feDistantLight43" />
      </feDiffuseLighting>
      <feComposite
         in="diffuse"
         in2="diffuse"
         operator="arithmetic"
         k1="1"
         result="composite1"
         id="feComposite44" />
      <feComposite
         in="composite1"
         in2="SourceGraphic"
         k1="1"
         operator="arithmetic"
         k3="1"
         result="fbSourceGraphic"
         id="feComposite45" />
      <feColorMatrix
         result="fbSourceGraphicAlpha"
         in="fbSourceGraphic"
         values="0 0 0 -1 0 0 0 0 -1 0 0 0 0 -1 0 0 0 0 1 0"
         id="feColorMatrix51" />
      <feGaussianBlur
         id="feGaussianBlur51"
         stdDeviation="6"
         in="fbSourceGraphic"
         result="result0" />
      <feDiffuseLighting
         id="feDiffuseLighting51"
         lighting-color="rgb(255,255,255)"
         diffuseConstant="1"
         surfaceScale="4"
         result="result5">
        <feDistantLight
           id="feDistantLight51"
           elevation="45"
           azimuth="235" />
      </feDiffuseLighting>
      <feComposite
         id="feComposite52"
         k1="1.4"
         in2="fbSourceGraphic"
         in="result5"
         result="fbSourceGraphic"
         operator="arithmetic"
         k2="0"
         k3="0"
         k4="0" />
      <feGaussianBlur
         id="feGaussianBlur52"
         result="result0"
         in="fbSourceGraphic"
         stdDeviation="6" />
      <feSpecularLighting
         id="feSpecularLighting52"
         specularExponent="25"
         specularConstant="1"
         surfaceScale="4"
         lighting-color="rgb(255,255,255)"
         result="result1"
         in="result0">
        <feDistantLight
           id="feDistantLight52"
           azimuth="235"
           elevation="45" />
      </feSpecularLighting>
      <feComposite
         id="feComposite53"
         k3="1"
         k2="1"
         operator="arithmetic"
         in="fbSourceGraphic"
         in2="result1"
         result="result4"
         k1="0"
         k4="0" />
      <feGaussianBlur
         id="feGaussianBlur53"
         stdDeviation="1"
         in="result4"
         result="result6" />
      <feComposite
         id="feComposite54"
         operator="in"
         result="result2"
         in2="fbSourceGraphic"
         in="result6" />
    </filter>
  </defs>
  <path
     style="fill:#0000ff;fill-rule:evenodd;stroke:#000000;stroke-width:1.9;stroke-linejoin:round;stroke-dasharray:none;filter:url(#filter45)"
     d="M 157.38638,0.95421026 C 135.20978,0.66770086 117.48797,15.044757 105.33755,33.233507 93.187127,51.422257 85.435725,74.193174 81.82388,95.995225 c -3.611845,21.802045 -3.556352,42.373675 3.398438,58.009765 3.477394,7.81804 9.546651,15.00935 18.408202,17.62304 8.86155,2.6137 18.45726,0.17865 27.62891,-5.35156 l -11.26172,-18.67773 c -5.99381,3.61407 -8.95899,3.4746 -10.19727,3.10937 -1.23828,-0.36522 -2.80946,-1.42754 -4.65039,-5.5664 -3.68185,-8.27772 -4.98343,-26.42969 -1.81055,-45.582031 3.17288,-19.152346 10.35003,-39.566463 20.13282,-54.210938 9.78278,-14.644475 20.99865,-22.751092 33.63085,-22.587891 12.86652,0.166229 25.39025,8.573254 36.3125,22.941407 10.92226,14.368153 19.45742,34.067654 23.78321,52.486328 4.32579,18.418675 3.86317,35.764565 0.56054,43.447265 -1.65131,3.84135 -3.02753,4.89723 -4.87695,5.45508 -1.84942,0.55784 -5.80755,0.62504 -12.74609,-2.75 l -9.54102,19.61132 c 9.99608,4.86229 19.72372,6.69072 28.58594,4.01758 8.86222,-2.67313 15.22433,-9.83915 18.61328,-17.72265 6.7779,-15.76702 5.60436,-35.88503 0.63477,-57.044923 C 233.45975,72.042365 224.1152,50.048736 210.77896,32.504991 197.44271,14.961246 179.32867,1.2376926 157.38638,0.95421026 Z M 160.14419,131.93077 c -11.08533,0.17249 -22.34694,3.72787 -31.88672,10.87305 l 13.07422,17.45507 c 10.80215,-8.09068 28.22182,-7.47792 36.86328,-1.23046 l 12.77735,-17.67383 c -8.83354,-6.38632 -19.7428,-9.59632 -30.82813,-9.42383 z"
     id="path1" />
  <path
     style="fill:#ff0000;fill-rule:evenodd;stroke:#000000;stroke-width:2;stroke-linejoin:round;stroke-dasharray:none;filter:url(#filter43)"
     d="m 108.57974,123.19639 c -2.52646,0.0796 -5.10117,0.42027 -7.66016,1.01954 -0.50815,2.79484 2.17782,19.70992 4.97266,21.23437 6.4045,-1.49982 6.34447,-0.92356 7.60937,0.24023 1.2649,1.1638 3.95168,5.94955 7.125,13.75782 6.54303,16.09979 12.81801,27.59451 15.24024,44.75781 0.25372,1.79794 0.20482,4.79923 1.41211,9.02344 1.20728,4.2242 4.38748,9.25663 9.04882,12.62109 l 12.76368,-17.68359 c -1.21309,-0.87558 -0.68364,-0.36946 -0.84375,-0.92969 -0.16012,-0.56023 -0.29467,-2.60245 -0.78516,-6.07813 -2.96116,-20.98203 -10.62448,-35.13776 -16.63281,-49.92187 -3.286,-8.08551 -5.94145,-15.50385 -12.5625,-21.5957 -4.9658,-4.56889 -12.10812,-6.68413 -19.6875,-6.44532 z m -29.057915,7.90609 c -8.244569,1.97084 -17.810621,7.16169 -27.756539,14.56462 -9.945917,7.40293 -20.600595,17.31597 -29.697265,29.3789 -18.1933416,24.12588 -30.0471322,58.70087 -12.3828129,93.8418 8.8791579,17.66397 22.5365569,29.37637 37.7949219,35.35156 15.258366,5.97519 31.814849,6.5051 47.607422,3.82227 31.585148,-5.36566 60.789748,-22.51385 74.755858,-43.88086 3.16837,-4.8473 6.86753,-11.8198 7.69531,-20.6543 0.82779,-8.8345 -2.66504,-20.06991 -12.16601,-27.24219 l -13.13868,17.40625 c 3.91816,2.95782 3.90085,4.48163 3.58985,7.80079 -0.311,3.31916 -2.36586,7.89421 -4.23633,10.75586 -8.66155,13.25146 -34.53414,29.96049 -60.152342,34.3125 -12.809104,2.176 -25.385797,1.53034 -36.001953,-2.62696 -10.616156,-4.15729 -19.574231,-11.53593 -26.261719,-24.83984 -13.468965,-26.79481 -4.896643,-50.75262 10.308594,-70.91602 7.602619,-10.0817 16.889333,-18.75047 25.306641,-25.01562 8.417307,-6.26516 17.414718,-10.84328 19.55129,-11.35402 -1.524457,-4.06522 -3.545855,-11.30393 -4.816236,-20.70474 z"
     id="path2"
     sodipodi:nodetypes="sccssssccscssscsssssssccssssssscc" />
  <path
     style="fill:#00ff00;fill-rule:evenodd;stroke:#000000;stroke-width:2;stroke-linejoin:round;stroke-dasharray:none;filter:url(#filter41)"
     d="m 214.28286,118.4503 c -6.3657,-0.36623 -12.91464,0.62825 -18.70312,4.42774 -7.71798,5.06598 -12.25826,13.5246 -15.43946,24.41406 -5.09924,17.45554 -12.62492,26.2198 -19.61328,40.84961 -5.87553,12.30016 -16.33199,24.51861 -24.16601,36.9375 -3.91701,6.20944 -7.38727,12.60132 -8.40235,20.2832 -1.01508,7.68188 1.95694,14.63426 8.1408,20.95372 4.31929,-1.77853 14.82566,-10.67859 15.33381,-13.21935 -2.28513,-2.33524 -2.15075,-2.62756 -1.85351,-4.87695 0.29723,-2.24939 2.03538,-6.44199 5.22851,-11.5039 6.38626,-10.12383 17.7633,-23.19195 25.39844,-39.17579 5.6301,-11.78635 14.71869,-23.08549 20.86719,-44.13281 2.44276,-8.36174 5.03245,-11.35154 6.47265,-12.29687 1.44021,-0.94534 4.82625,-1.6955 10.38562,-0.68767 2.28669,-3.81114 2.62024,-17.64979 2.62024,-21.20686 -2.04592,-0.3709 -4.14763,-0.64355 -6.26953,-0.76563 z m 28.60301,3.66126 c 0.25408,5.08152 -1.24669,19.52794 -2.51707,22.83093 1.85125,0.28162 9.02665,3.45616 16.23828,9.6289 7.21163,6.17274 14.99031,15.047 21.26758,25.69532 12.55453,21.29664 19.32953,48.938 7.05859,79.68164 -6.02774,15.10203 -14.24698,23.48971 -23.69726,28.43164 -9.45029,4.94192 -20.64762,6.37762 -32.50391,5.1582 -23.71258,-2.43884 -49.43451,-16.49115 -60.30469,-26.98633 l -15.14843,15.68946 c 15.51372,14.97853 43.24943,29.90943 73.22265,32.99218 14.98661,1.54138 30.69009,-0.12788 44.83985,-7.52734 14.14975,-7.39946 26.23044,-20.58952 33.84765,-39.67383 15.01907,-37.6288 6.60088,-73.17736 -8.52734,-98.83984 -7.56411,-12.83124 -16.74847,-23.37934 -25.87305,-31.18946 -9.12457,-7.81011 -18.42198,-14.4492 -27.90285,-15.89147 z"
     id="path3"
     sodipodi:nodetypes="sscsssccssscsccsccsssssccsscssc" />
  <metadata
     id="metadata6">
    <rdf:RDF>
      <cc:Work
         rdf:about="">
        <dc:title>état nœudien</dc:title>
      </cc:Work>
    </rdf:RDF>
  </metadata>
</svg>
